<svg width="598" height="112" xmlns="http://www.w3.org/2000/svg" xmlns:xlink="http://www.w3.org/1999/xlink">
 <!-- Created with Method Draw - http://github.com/duopixel/Method-Draw/ -->

 <g>
  <title>background</title>
  <rect fill="#fff" id="canvas_background" height="114" width="600" y="-1" x="-1"/>
  <g display="none" overflow="visible" y="0" x="0" height="100%" width="100%" id="canvasGrid">
   <rect fill="url(#gridpattern)" stroke-width="0" y="0" x="0" height="100%" width="100%"/>
  </g>
 </g>
 <g>
  <title>Layer 1</title>
  <defs>
   <pattern patternTransform="matrix(10,0,0,9.6951407,0,18.871043)" id="svg_65" xlink:href="#svg_68"/>
   <pattern patternUnits="userSpaceOnUse" width="2" height="1" patternTransform="translate(0,0) scale(10,10)" id="svg_68">
    <rect fill="black" x="0" y="-0.5" width="1" height="2" id="svg_69"/>
   </pattern>
  </defs>
  <metadata transform="matrix(0.047612442226379274,0,0,0.047612442226379274,0,0) " id="svg_67">image/svg+xml</metadata>
  <g stroke="null" id="svg_71">
   <g transform="matrix(0.5856665525289094,0,0,0.5856665525289094,-3110.184321255806,-2324.8939232741955) " stroke="null" id="svg_37">
    <g transform="matrix(0.7646644066448726,0,0,0.7646644066448726,-3202.081787113014,-2517.1535815222956) " stroke="null" id="svg_38">
     <rect transform="matrix(0.7646644066448726,0,0,0.7646644066448726,-3202.081787113014,-2517.1535815222956) " fill="#a05a2c" id="svg_66" width="37.139797" height="7.386439" x="4209.49836" y="3415.017434" ry="0.410358"/>
     <path transform="matrix(0.7646644066448726,0,0,0.7646644066448726,-3202.081787113014,-2517.1535815222956) " fill="url(#svg_65)" d="m4256.53242,3348.140924l-47.07032,67.46094l47.83777,-0.49603l-0.76745,-66.96491z" id="svg_64"/>
     <path transform="matrix(0.7646644066448726,0,0,0.7646644066448726,-3202.081787113014,-2517.1535815222956) " fill="#ff0000" d="m4325.41537,3314.851484c-0.12258,0.0511 -0.1875,0.17234 -0.1875,0.3125l0,32.40625l-44.28125,0l0,-14.5c0,-0.18454 -0.15702,-0.3125 -0.34375,-0.3125l-25.46875,0c-0.0466,0 -0.1159,-0.0168 -0.15625,0c-0.0151,0.006 -0.0178,0.0228 -0.0312,0.0312l-0.40625,0l0,15.03125l0.0312,0c-0.0121,0.0338 -0.0312,0.0542 -0.0312,0.0937l0,60.71875c0,0.15813 0.1019,0.27561 0.25,0.3125l0,0.46875c0,0.18454 0.15702,0.34375 0.34375,0.34375l25.46875,0c0.18673,0 0.34375,-0.15921 0.34375,-0.34375l0,-0.4375l103.96875,0c0.1891,0 0.34375,-0.15687 0.34375,-0.34375l0,-28.375l0,-32.34375l0,-32.75c0,-0.18688 -0.15465,-0.3125 -0.34375,-0.3125l-59.375,0c-0.0473,0 -0.0841,-0.017 -0.125,0l-0.00005,0.0001z" id="svg_63"/>
     <rect transform="matrix(0.7646644066448726,0,0,0.7646644066448726,-3202.081787113014,-2517.1535815222956) " fill="#a05a2c" id="svg_62" width="124.83869" height="12" x="4265.43948" y="3403.746264" ry="0.416667"/>
     <path transform="matrix(0.7646644066448726,0,0,0.7646644066448726,-3202.081787113014,-2517.1535815222956) " fill="#000000" id="svg_61" d="m4322.691459,3413.25726c0,11.045694 -8.954317,20.000002 -20.00001,20.000002c-11.045694,0 -19.999997,-8.954309 -19.999997,-20.000002c0,-11.045694 8.954303,-20.000002 19.999997,-20.000002c11.045694,0 20.00001,8.954309 20.00001,20.000002z"/>
     <path transform="matrix(0.7646644066448726,0,0,0.7646644066448726,-3202.081787113014,-2517.1535815222956) " fill="#999999" d="m4317.691459,3413.25726c0,8.28427 -6.715738,15.000002 -15.000009,15.000002c-8.284271,0 -14.999998,-6.715732 -14.999998,-15.000002c0,-8.28427 6.715727,-15.000002 14.999998,-15.000002c8.284271,0 15.000009,6.715732 15.000009,15.000002z" id="svg_60"/>
     <path transform="matrix(0.7646644066448726,0,0,0.7646644066448726,-3202.081787113014,-2517.1535815222956) " fill="#000000" d="m4280.691459,3413.25726c0,11.045694 -8.954317,20.000002 -20.00001,20.000002c-11.045694,0 -19.999997,-8.954309 -19.999997,-20.000002c0,-11.045694 8.954303,-20.000002 19.999997,-20.000002c11.045694,0 20.00001,8.954309 20.00001,20.000002z" id="svg_59"/>
     <path transform="matrix(0.7646644066448726,0,0,0.7646644066448726,-3202.081787113014,-2517.1535815222956) " fill="#999999" id="svg_58" d="m4275.691459,3413.25726c0,8.28427 -6.715738,15.000002 -15.000009,15.000002c-8.284271,0 -14.999998,-6.715732 -14.999998,-15.000002c0,-8.28427 6.715727,-15.000002 14.999998,-15.000002c8.284271,0 15.000009,6.715732 15.000009,15.000002z"/>
     <path transform="matrix(0.7646644066448726,0,0,0.7646644066448726,-3202.081787113014,-2517.1535815222956) " fill="#000000" d="m4381.528595,3407.42014c0,14.911687 -12.088328,27.000003 -27.000015,27.000003c-14.911687,0 -26.999996,-12.088317 -26.999996,-27.000003c0,-14.911687 12.088309,-27.000003 26.999996,-27.000003c14.911687,0 27.000015,12.088317 27.000015,27.000003z" id="svg_57"/>
     <path transform="matrix(0.7646644066448726,0,0,0.7646644066448726,-3202.081787113014,-2517.1535815222956) " fill="#999999" id="svg_56" d="m4374.778576,3407.420119c0,11.183765 -9.066246,20.250003 -20.250012,20.250003c-11.183765,0 -20.249998,-9.066238 -20.249998,-20.250003c0,-11.183765 9.066232,-20.250003 20.249998,-20.250003c11.183765,0 20.250012,9.066238 20.250012,20.250003z"/>
     <rect transform="matrix(0.7646644066448726,0,0,0.7646644066448726,-3202.081787113014,-2517.1535815222956) " fill="#ffffff" id="svg_55" width="34" height="40" x="4339.16131" y="3322.559244" ry="0.277778"/>
     <rect transform="matrix(0.7646644066448726,0,0,0.7646644066448726,-3202.081787113014,-2517.1535815222956) " fill="#000000" id="svg_54" width="34" height="8.186144" x="4250.69517" y="3324.605754" ry="3.347582"/>
     <rect transform="matrix(0.7646644066448726,0,0,0.7646644066448726,-3202.081787113014,-2517.1535815222956) " fill="#a05a2c" y="3304.907884" x="4317.71923" height="9.976863" width="74" id="svg_53"/>
     <rect transform="matrix(0.7646644066448726,0,0,0.7646644066448726,-3202.081787113014,-2517.1535815222956) " fill="#999999" id="svg_52" width="102.58262" height="10" x="4395.18524" y="3338.117534" ry="0.277778"/>
     <rect transform="matrix(0.7646644066448726,0,0,0.7646644066448726,-3202.081787113014,-2517.1535815222956) " fill="#0088aa" id="svg_51" width="98" height="56" x="4397.7434" y="3348.140914" ry="0.277778"/>
     <rect transform="matrix(0.7646644066448726,0,0,0.7646644066448726,-3202.081787113014,-2517.1535815222956) " fill="#a05a2c" ry="0.416667" y="3403.746264" x="4395.43948" height="12" width="102.3268" id="svg_50"/>
     <path transform="matrix(0.7646644066448726,0,0,0.7646644066448726,-3202.081787113014,-2517.1535815222956) " fill="#000000" d="m4442.691459,3413.25726c0,11.045694 -8.954317,20.000002 -20.00001,20.000002c-11.045694,0 -19.999997,-8.954309 -19.999997,-20.000002c0,-11.045694 8.954303,-20.000002 19.999997,-20.000002c11.045694,0 20.00001,8.954309 20.00001,20.000002z" id="svg_49"/>
     <path transform="matrix(0.7646644066448726,0,0,0.7646644066448726,-3202.081787113014,-2517.1535815222956) " fill="#999999" id="svg_48" d="m4437.691454,3413.25726c0,8.28427 -6.715738,15.000002 -15.000009,15.000002c-8.284271,0 -14.999998,-6.715732 -14.999998,-15.000002c0,-8.28427 6.715727,-15.000002 14.999998,-15.000002c8.284271,0 15.000009,6.715732 15.000009,15.000002z"/>
     <path transform="matrix(0.7646644066448726,0,0,0.7646644066448726,-3202.081787113014,-2517.1535815222956) " fill="#000000" id="svg_47" d="m4486.691457,3413.25726c0,11.045694 -8.954317,20.000002 -20.00001,20.000002c-11.045694,0 -19.999997,-8.954309 -19.999997,-20.000002c0,-11.045694 8.954303,-20.000002 19.999997,-20.000002c11.045694,0 20.00001,8.954309 20.00001,20.000002z"/>
     <path transform="matrix(0.7646644066448726,0,0,0.7646644066448726,-3202.081787113014,-2517.1535815222956) " fill="#999999" d="m4481.691454,3413.25726c0,8.28427 -6.715738,15.000002 -15.000009,15.000002c-8.284271,0 -14.999998,-6.715732 -14.999998,-15.000002c0,-8.28427 6.715727,-15.000002 14.999998,-15.000002c8.284271,0 15.000009,6.715732 15.000009,15.000002z" id="svg_46"/>
     <rect fill="#a05a2c" id="svg_45" width="102.3268" height="12" x="4501.43948" y="3403.746264" ry="0.416667"/>
     <rect fill="#0088aa" ry="0.277778" y="3348.140914" x="4502.51086" height="56" width="98" id="svg_44"/>
     <path transform="matrix(0.7646644066448726,0,0,0.7646644066448726,-3202.081787113014,-2517.1535815222956) " fill="#000000" d="m4550.691457,3413.25726c0,11.045694 -8.954317,20.000002 -20.00001,20.000002c-11.045694,0 -19.999997,-8.954309 -19.999997,-20.000002c0,-11.045694 8.954303,-20.000002 19.999997,-20.000002c11.045694,0 20.00001,8.954309 20.00001,20.000002z" id="svg_43"/>
     <path transform="matrix(0.7646644066448726,0,0,0.7646644066448726,-3202.081787113014,-2517.1535815222956) " fill="#999999" id="svg_42" d="m4545.691454,3413.25726c0,8.28427 -6.715738,15.000002 -15.000009,15.000002c-8.284271,0 -14.999998,-6.715732 -14.999998,-15.000002c0,-8.28427 6.715727,-15.000002 14.999998,-15.000002c8.284271,0 15.000009,6.715732 15.000009,15.000002z"/>
     <path transform="matrix(0.7646644066448726,0,0,0.7646644066448726,-3202.081787113014,-2517.1535815222956) " fill="#000000" id="svg_41" d="m4592.691457,3413.25726c0,11.045694 -8.954317,20.000002 -20.00001,20.000002c-11.045694,0 -19.999997,-8.954309 -19.999997,-20.000002c0,-11.045694 8.954303,-20.000002 19.999997,-20.000002c11.045694,0 20.00001,8.954309 20.00001,20.000002z"/>
     <path transform="matrix(0.7646644066448726,0,0,0.7646644066448726,-3202.081787113014,-2517.1535815222956) " fill="#999999" d="m4587.691454,3413.25726c0,8.28427 -6.715738,15.000002 -15.000009,15.000002c-8.284271,0 -14.999998,-6.715732 -14.999998,-15.000002c0,-8.28427 6.715727,-15.000002 14.999998,-15.000002c8.284271,0 15.000009,6.715732 15.000009,15.000002z" id="svg_40"/>
     <rect fill="#999999" ry="0.277778" y="3338.117534" x="4501.18524" height="10" width="102.58262" id="svg_39"/>
    </g>
   </g>
   <defs>
    <pattern patternTransform="matrix(10,0,0,9.6951407,0,18.871043)" id="svg_143" xlink:href="#svg_146"/>
    <pattern patternUnits="userSpaceOnUse" width="2" height="1" patternTransform="translate(0,0) scale(10,10)" id="svg_146">
     <rect fill="black" x="0" y="-0.5" width="1" height="2" id="svg_147"/>
    </pattern>
   </defs>
   <metadata transform="matrix(0.009556091007341172,0,0,0.009556091007341172,0,0) " id="svg_145">image/svg+xml</metadata>
   <rect transform="matrix(0.7669592326752949,0,0,0.7669592326752949,-22373.376328741517,-3530.3660138341716) " fill="#a05a2c" id="svg_144" width="37.139797" height="7.386439" x="29176.185273" y="4725.651706" ry="0.410358"/>
   <path fill="url(#svg_143)" d="m39.641548,42.724636l-36.101017,51.739791l36.689619,-0.380435l-0.588603,-51.359356z" id="svg_142"/>
   <path fill="#ff0000" d="m92.471962,17.192992c-0.094014,0.039192 -0.143805,0.132178 -0.143805,0.239675l0,24.854273l-33.961914,0l0,-11.120909c0,-0.141535 -0.120428,-0.239675 -0.263642,-0.239675l-19.533493,0c-0.03574,0 -0.088891,-0.012885 -0.119837,0c-0.011581,0.004602 -0.013652,0.017487 -0.023929,0.023929l-0.311577,0l0,11.528356l0.023929,0c-0.00928,0.025923 -0.023929,0.041569 -0.023929,0.071864l0,46.568806c0,0.121279 0.078153,0.211382 0.19174,0.239675l0,0.359512c0,0.141535 0.120428,0.263642 0.263642,0.263642l19.533493,0c0.143214,0 0.263642,-0.122108 0.263642,-0.263642l0,-0.335545l79.739793,0c0.145032,0 0.263642,-0.120313 0.263642,-0.263642l0,-21.762468l0,-24.806338l0,-25.117915c0,-0.143329 -0.11861,-0.239675 -0.263642,-0.239675l-45.538204,0c-0.036277,0 -0.064501,-0.013038 -0.09587,0l-0.000038,0.000077z" id="svg_141"/>
   <rect transform="matrix(0.7669592326752949,0,0,0.7669592326752949,-22373.376328741517,-3530.3660138341716) " fill="#a05a2c" id="svg_140" width="124.83869" height="12" x="29232.126393" y="4714.380536" ry="0.416667"/>
   <path fill="#000000" id="svg_139" d="m90.382833,92.66621c0,8.471597 -6.867596,15.339186 -15.339193,15.339186c-8.471597,0 -15.339182,-6.86759 -15.339182,-15.339186c0,-8.471597 6.867585,-15.339186 15.339182,-15.339186c8.471597,0 15.339193,6.86759 15.339193,15.339186z"/>
   <path fill="#999999" d="m86.548037,92.66621c0,6.353698 -5.150697,11.50439 -11.504395,11.50439c-6.353698,0 -11.504387,-5.150692 -11.504387,-11.50439c0,-6.353698 5.150689,-11.50439 11.504387,-11.50439c6.353698,0 11.504395,5.150692 11.504395,11.50439z" id="svg_138"/>
   <path fill="#000000" d="m58.170545,92.66621c0,8.471597 -6.867596,15.339186 -15.339193,15.339186c-8.471597,0 -15.339182,-6.86759 -15.339182,-15.339186c0,-8.471597 6.867585,-15.339186 15.339182,-15.339186c8.471597,0 15.339193,6.86759 15.339193,15.339186z" id="svg_137"/>
   <path fill="#999999" id="svg_136" d="m54.335749,92.66621c0,6.353698 -5.150697,11.50439 -11.504395,11.50439c-6.353698,0 -11.504387,-5.150692 -11.504387,-11.50439c0,-6.353698 5.150689,-11.50439 11.504387,-11.50439c6.353698,0 11.504395,5.150692 11.504395,11.50439z"/>
   <path fill="#000000" d="m135.508518,88.189378c0,11.436656 -9.271255,20.707902 -20.707911,20.707902c-11.436656,0 -20.707896,-9.271246 -20.707896,-20.707902c0,-11.436656 9.27124,-20.707902 20.707896,-20.707902c11.436656,0 20.707911,9.271246 20.707911,20.707902z" id="svg_135"/>
   <path fill="#999999" id="svg_134" d="m130.331528,88.189361c0,8.577492 -6.953441,15.530926 -15.530933,15.530926c-8.577492,0 -15.530923,-6.953435 -15.530923,-15.530926c0,-8.577492 6.95343,-15.530926 15.530923,-15.530926c8.577492,0 15.530933,6.953435 15.530933,15.530926z"/>
   <rect transform="matrix(0.7669592326752949,0,0,0.7669592326752949,-22373.376328741517,-3530.3660138341716) " fill="#ffffff" id="svg_133" width="34" height="40" x="29305.848223" y="4633.193516" ry="0.277778"/>
   <rect transform="matrix(0.7669592326752949,0,0,0.7669592326752949,-22373.376328741517,-3530.3660138341716) " fill="#000000" id="svg_132" width="34" height="8.186144" x="29217.382083" y="4635.240026" ry="3.347582"/>
   <rect transform="matrix(0.7669592326752949,0,0,0.7669592326752949,-22373.376328741517,-3530.3660138341716) " fill="#a05a2c" y="4615.542156" x="29284.406143" height="9.976863" width="74" id="svg_131"/>
   <rect transform="matrix(0.7669592326752949,0,0,0.7669592326752949,-22373.376328741517,-3530.3660138341716) " fill="#999999" id="svg_130" width="102.58262" height="10" x="29361.872153" y="4648.751806" ry="0.277778"/>
   <rect transform="matrix(0.7669592326752949,0,0,0.7669592326752949,-22373.376328741517,-3530.3660138341716) " fill="#0088aa" id="svg_129" width="98" height="56" x="29364.430313" y="4658.775186" ry="0.277778"/>
   <rect transform="matrix(0.7669592326752949,0,0,0.7669592326752949,-22373.376328741517,-3530.3660138341716) " fill="#a05a2c" ry="0.416667" y="4714.380536" x="29362.126393" height="12" width="102.3268" id="svg_128"/>
   <path fill="#000000" d="m182.417941,92.66621c0,8.471597 -6.867596,15.339186 -15.339193,15.339186c-8.471597,0 -15.339182,-6.86759 -15.339182,-15.339186c0,-8.471597 6.867585,-15.339186 15.339182,-15.339186c8.471597,0 15.339193,6.86759 15.339193,15.339186z" id="svg_127"/>
   <path fill="#999999" id="svg_126" d="m178.583141,92.66621c0,6.353698 -5.150697,11.50439 -11.504395,11.50439c-6.353698,0 -11.504387,-5.150692 -11.504387,-11.50439c0,-6.353698 5.150689,-11.50439 11.504387,-11.50439c6.353698,0 11.504395,5.150692 11.504395,11.50439z"/>
   <path fill="#000000" id="svg_125" d="m216.164146,92.66621c0,8.471597 -6.867596,15.339186 -15.339193,15.339186c-8.471597,0 -15.339182,-6.86759 -15.339182,-15.339186c0,-8.471597 6.867585,-15.339186 15.339182,-15.339186c8.471597,0 15.339193,6.86759 15.339193,15.339186z"/>
   <path fill="#999999" d="m212.329347,92.66621c0,6.353698 -5.150697,11.50439 -11.504395,11.50439c-6.353698,0 -11.504387,-5.150692 -11.504387,-11.50439c0,-6.353698 5.150689,-11.50439 11.504387,-11.50439c6.353698,0 11.504395,5.150692 11.504395,11.50439z" id="svg_124"/>
   <rect transform="matrix(0.7669592326752949,0,0,0.7669592326752949,-22373.376328741517,-3530.3660138341716) " fill="#a05a2c" id="svg_150" width="102.3268" height="12" x="29468.126393" y="4714.380536" ry="0.416667"/>
   <rect transform="matrix(0.7669592326752949,0,0,0.7669592326752949,-22373.376328741517,-3530.3660138341716) " fill="#0088aa" ry="0.277778" y="4658.775186" x="29469.197773" height="56" width="98" id="svg_151"/>
   <path fill="#000000" d="m265.24954,92.66621c0,8.4716 -6.8676,15.33919 -15.3392,15.33919c-8.47159,0 -15.33918,-6.86759 -15.33918,-15.33919c0,-8.4716 6.86759,-15.33919 15.33918,-15.33919c8.4716,0 15.3392,6.86759 15.3392,15.33919z" id="svg_152"/>
   <path fill="#999999" id="svg_153" d="m261.41474,92.66621c0,6.3537 -5.1507,11.50439 -11.5044,11.50439c-6.3537,0 -11.50438,-5.15069 -11.50438,-11.50439c0,-6.3537 5.15068,-11.50439 11.50438,-11.50439c6.3537,0 11.5044,5.15069 11.5044,11.50439z"/>
   <path fill="#000000" id="svg_154" d="m297.46182,92.66621c0,8.4716 -6.86759,15.33919 -15.33919,15.33919c-8.4716,0 -15.33918,-6.86759 -15.33918,-15.33919c0,-8.4716 6.86758,-15.33919 15.33918,-15.33919c8.4716,0 15.33919,6.86759 15.33919,15.33919z"/>
   <path fill="#999999" d="m293.62703,92.66621c0,6.3537 -5.1507,11.50439 -11.5044,11.50439c-6.3537,0 -11.50439,-5.15069 -11.50439,-11.50439c0,-6.3537 5.15069,-11.50439 11.50439,-11.50439c6.3537,0 11.5044,5.15069 11.5044,11.50439z" id="svg_155"/>
   <rect transform="matrix(0.7669592326752949,0,0,0.7669592326752949,-22373.376328741517,-3530.3660138341716) " fill="#999999" ry="0.277778" y="4648.751806" x="29467.872153" height="10" width="102.58262" id="svg_156"/>
   <g id="svg_157">
    <rect transform="matrix(0.7669592326752949,0,0,0.7669592326752949,-22373.376328741517,-3530.3660138341716) " fill="#a05a2c" id="svg_123" width="102.3268" height="12" x="29574.063771" y="4714.380536" ry="0.416667"/>
    <rect transform="matrix(0.7669592326752949,0,0,0.7669592326752949,-22373.376328741517,-3530.3660138341716) " fill="#0088aa" ry="0.277778" y="4658.775186" x="29575.135151" height="56" width="98" id="svg_122"/>
    <path fill="#000000" d="m346.499187,92.66621c0,8.471597 -6.867596,15.339186 -15.339193,15.339186c-8.471597,0 -15.339182,-6.86759 -15.339182,-15.339186c0,-8.471597 6.867585,-15.339186 15.339182,-15.339186c8.471597,0 15.339193,6.86759 15.339193,15.339186z" id="svg_121"/>
    <path fill="#999999" id="svg_120" d="m342.664388,92.66621c0,6.353698 -5.150697,11.50439 -11.504395,11.50439c-6.353698,0 -11.504387,-5.150692 -11.504387,-11.50439c0,-6.353698 5.150689,-11.50439 11.504387,-11.50439c6.353698,0 11.504395,5.150692 11.504395,11.50439z"/>
    <path fill="#000000" id="svg_119" d="m378.711474,92.66621c0,8.471597 -6.867596,15.339186 -15.339193,15.339186c-8.471597,0 -15.339182,-6.86759 -15.339182,-15.339186c0,-8.471597 6.867585,-15.339186 15.339182,-15.339186c8.471597,0 15.339193,6.86759 15.339193,15.339186z"/>
    <path fill="#999999" d="m374.876676,92.66621c0,6.353698 -5.150697,11.50439 -11.504395,11.50439c-6.353698,0 -11.504387,-5.150692 -11.504387,-11.50439c0,-6.353698 5.150689,-11.50439 11.504387,-11.50439c6.353698,0 11.504395,5.150692 11.504395,11.50439z" id="svg_118"/>
    <rect transform="matrix(0.7669592326752949,0,0,0.7669592326752949,-22373.376328741517,-3530.3660138341716) " fill="#999999" ry="0.277778" y="4648.751806" x="29573.809531" height="10" width="102.58262" id="svg_117"/>
   </g>
   <g id="svg_165">
    <rect transform="matrix(0.7669592326752949,0,0,0.7669592326752949,-22373.376328741517,-3530.3660138341716) " fill="#a05a2c" id="svg_158" width="102.3268" height="12" x="29785.93853" y="4714.380535" ry="0.416667"/>
    <rect transform="matrix(0.7669592326752949,0,0,0.7669592326752949,-22373.376328741517,-3530.3660138341716) " fill="#0088aa" ry="0.277778" y="4658.775185" x="29787.00991" height="56" width="98" id="svg_159"/>
    <path fill="#000000" d="m508.998492,92.666209c0,8.4716 -6.8676,15.33919 -15.3392,15.33919c-8.47159,0 -15.33918,-6.86759 -15.33918,-15.33919c0,-8.4716 6.86759,-15.33919 15.33918,-15.33919c8.4716,0 15.3392,6.86759 15.3392,15.33919z" id="svg_160"/>
    <path fill="#999999" id="svg_161" d="m505.163692,92.666209c0,6.3537 -5.1507,11.50439 -11.5044,11.50439c-6.35369,0 -11.50438,-5.15069 -11.50438,-11.50439c0,-6.3537 5.15069,-11.50439 11.50438,-11.50439c6.3537,0 11.5044,5.15069 11.5044,11.50439z"/>
    <path fill="#000000" id="svg_162" d="m541.210772,92.666209c0,8.4716 -6.86759,15.33919 -15.33919,15.33919c-8.47159,0 -15.33918,-6.86759 -15.33918,-15.33919c0,-8.4716 6.86759,-15.33919 15.33918,-15.33919c8.4716,0 15.33919,6.86759 15.33919,15.33919z"/>
    <path fill="#999999" d="m537.375982,92.666209c0,6.3537 -5.1507,11.50439 -11.5044,11.50439c-6.3537,0 -11.50439,-5.15069 -11.50439,-11.50439c0,-6.3537 5.15069,-11.50439 11.50439,-11.50439c6.3537,0 11.5044,5.15069 11.5044,11.50439z" id="svg_163"/>
    <rect transform="matrix(0.7669592326752949,0,0,0.7669592326752949,-22373.376328741517,-3530.3660138341716) " fill="#999999" ry="0.277778" y="4648.751805" x="29785.68429" height="10" width="102.58262" id="svg_164"/>
   </g>
   <g id="svg_173">
    <rect transform="matrix(0.7669592326752949,0,0,0.7669592326752949,-22373.376328741517,-3530.3660138341716) " fill="#a05a2c" id="svg_166" width="102.3268" height="12" x="29680.001151" y="4714.380536" ry="0.416667"/>
    <rect transform="matrix(0.7669592326752949,0,0,0.7669592326752949,-22373.376328741517,-3530.3660138341716) " fill="#0088aa" ry="0.277778" y="4658.775186" x="29681.072531" height="56" width="98" id="svg_167"/>
    <path fill="#000000" d="m427.74884,92.66621c0,8.4716 -6.8676,15.33919 -15.3392,15.33919c-8.47159,0 -15.33918,-6.86759 -15.33918,-15.33919c0,-8.4716 6.86759,-15.33919 15.33918,-15.33919c8.4716,0 15.3392,6.86759 15.3392,15.33919z" id="svg_168"/>
    <path fill="#999999" id="svg_169" d="m423.91404,92.66621c0,6.3537 -5.1507,11.50439 -11.5044,11.50439c-6.35369,0 -11.50438,-5.15069 -11.50438,-11.50439c0,-6.3537 5.15069,-11.50439 11.50438,-11.50439c6.3537,0 11.5044,5.15069 11.5044,11.50439z"/>
    <path fill="#000000" id="svg_170" d="m459.96112,92.66621c0,8.4716 -6.86759,15.33919 -15.33919,15.33919c-8.47159,0 -15.33918,-6.86759 -15.33918,-15.33919c0,-8.4716 6.86759,-15.33919 15.33918,-15.33919c8.4716,0 15.33919,6.86759 15.33919,15.33919z"/>
    <path fill="#999999" d="m456.12633,92.66621c0,6.3537 -5.1507,11.50439 -11.5044,11.50439c-6.3537,0 -11.50439,-5.15069 -11.50439,-11.50439c0,-6.3537 5.15069,-11.50439 11.50439,-11.50439c6.3537,0 11.5044,5.15069 11.5044,11.50439z" id="svg_171"/>
    <rect transform="matrix(0.7669592326752949,0,0,0.7669592326752949,-22373.376328741517,-3530.3660138341716) " fill="#999999" ry="0.277778" y="4648.751806" x="29679.746911" height="10" width="102.58262" id="svg_172"/>
   </g>
  </g>
 </g>
</svg>